<svg width="500" height="500" viewBox="0 0 500 500" fill="none" xmlns="http://www.w3.org/2000/svg">
<mask id="mask0_1_2" style="mask-type:luminance" maskUnits="userSpaceOnUse" x="110" y="170" width="280" height="138">
<path d="M110.63 170.667H389.63V308H110.63V170.667Z" fill="white"/>
</mask>
<g mask="url(#mask0_1_2)">
<path fill-rule="evenodd" clip-rule="evenodd" d="M374.359 277.599C373.714 276.12 373.99 276.49 372.141 275.839C366.677 273.615 358.62 270.281 355.099 266.115C346.026 255.188 366.677 238.427 375.193 230.188C378.25 227.318 389.083 218.333 389.365 214.443C387.417 212.224 385.844 212.5 381.953 212.594C370.01 212.964 336.302 219.26 324.818 221.391C287.13 228.427 237.589 238.797 200.266 247.688L139.427 261.578C145.818 262.318 158.318 260.839 165.542 260.651C173.875 260.375 183.135 260.005 191.193 259.266L241.385 257.781C240.734 257.875 240.177 257.969 239.344 258.151C237.865 258.339 236.844 258.615 235.365 258.802C217.031 261.948 116.37 275.745 110.63 277.786C120.536 282.135 317.224 281.766 358.62 278.896C362.599 278.62 371.677 279.359 374.359 277.599ZM217.677 193.052C224.437 191.573 226.104 185.646 245.552 182.682C245.828 176.568 246.474 172.865 241.104 171.385C233.974 169.438 221.568 173.604 218.51 178.234C217.031 180.458 217.677 189.719 217.677 193.052ZM244.068 302.88C234.255 302.88 223.974 302.88 214.25 303.25C209.437 303.526 189.339 303.344 186.562 305.474C193.786 307.88 233.422 307.693 244.068 307.693C262.219 307.786 313.427 308.068 319.63 305.286C315.094 302.693 262.682 302.786 244.068 302.88ZM191.38 218.521C197.12 217.5 279.26 194.813 279.906 194.255C277.13 188.24 266.849 182.313 257.401 182.958C248.604 183.609 240.271 189.536 233.88 193.24C230.365 195.276 193.786 216.203 191.38 218.521ZM360.562 292.047C359.172 290.563 357.042 290.656 354.729 290.469C320.651 287.229 148.964 286.953 145.26 291.766C154.708 296.953 340.469 295.474 360.562 292.047ZM175.078 239.354C177.49 240.281 306.391 217.776 323.057 215.927C321.948 211.391 314.26 202.776 311.484 200.552C305.833 196.016 299.63 194.536 290.646 196.292C277.5 198.885 262.958 204.906 251.016 209.443C238.234 214.349 225.177 219.354 212.771 224.26C200.083 229.26 187.583 234.63 175.078 239.354Z" fill="#FFA500"/>
</g>
<path d="M168.949 346.982V343.607H170.907V352.002H168.949V348.648H166.137V352.002H164.178V343.607H166.137V346.982H168.949Z" fill="#FFA500"/>
<path d="M175.152 345.232C176.163 345.232 176.892 345.482 177.34 345.982C177.798 346.471 178.027 347.143 178.027 348.002V352.002H176.194V351.19C176.027 351.482 175.783 351.721 175.465 351.898C175.158 352.065 174.798 352.148 174.382 352.148C174.007 352.148 173.663 352.065 173.361 351.898C173.069 351.721 172.829 351.476 172.652 351.169C172.47 350.851 172.382 350.476 172.382 350.044C172.382 349.419 172.569 348.935 172.944 348.586C173.319 348.226 173.902 348.044 174.694 348.044C174.944 348.044 175.199 348.055 175.465 348.065C175.741 348.081 175.986 348.096 176.194 348.107V347.961C176.194 347.586 176.079 347.294 175.861 347.086C175.652 346.877 175.34 346.773 174.923 346.773C174.616 346.773 174.309 346.81 174.007 346.877C173.715 346.95 173.444 347.034 173.194 347.127L173.027 345.586C173.329 345.476 173.663 345.393 174.027 345.336C174.387 345.268 174.762 345.232 175.152 345.232ZM175.007 350.627C175.798 350.627 176.194 350.159 176.194 349.211V349.19C176.038 349.164 175.882 349.148 175.715 349.148C175.559 349.138 175.382 349.127 175.173 349.127C174.809 349.127 174.548 349.185 174.382 349.294C174.225 349.409 174.152 349.596 174.152 349.857C174.152 350.081 174.225 350.268 174.382 350.419C174.533 350.56 174.741 350.627 175.007 350.627Z" fill="#FFA500"/>
<path d="M183.088 345.252C183.172 345.252 183.266 345.263 183.38 345.273C183.505 345.289 183.62 345.31 183.734 345.336L183.568 347.127C183.469 347.101 183.349 347.086 183.213 347.086C183.073 347.086 182.948 347.086 182.838 347.086C182.448 347.086 182.141 347.268 181.922 347.627C181.698 347.976 181.588 348.461 181.588 349.086V352.002H179.713V345.377H181.588V346.211C181.906 345.575 182.406 345.252 183.088 345.252Z" fill="#FFA500"/>
<path d="M188.608 352.002H186.608L184.317 345.377H186.275L187.587 349.857H187.608L188.942 345.377H190.9L188.608 352.002Z" fill="#FFA500"/>
<path d="M197.589 349.252H193.693C193.761 349.726 193.927 350.075 194.193 350.294C194.453 350.502 194.787 350.607 195.193 350.607C195.443 350.607 195.714 350.575 196.005 350.502C196.297 350.419 196.552 350.305 196.776 350.148L197.172 351.565C196.849 351.773 196.511 351.919 196.151 352.002C195.787 352.086 195.412 352.127 195.026 352.127C194.401 352.127 193.844 351.992 193.359 351.711C192.886 351.419 192.511 351.018 192.234 350.502C191.953 349.992 191.818 349.377 191.818 348.669C191.818 348.002 191.943 347.414 192.193 346.898C192.453 346.388 192.823 345.982 193.297 345.69C193.766 345.398 194.323 345.252 194.964 345.252C195.516 345.252 196.005 345.377 196.422 345.627C196.849 345.867 197.182 346.2 197.422 346.627C197.656 347.06 197.776 347.555 197.776 348.107C197.776 348.315 197.755 348.523 197.714 348.732C197.682 348.93 197.641 349.101 197.589 349.252ZM194.901 346.773C194.203 346.773 193.802 347.221 193.693 348.107H195.984C195.969 347.664 195.865 347.331 195.672 347.107C195.49 346.888 195.234 346.773 194.901 346.773Z" fill="#FFA500"/>
<path d="M201.238 352.127C200.764 352.127 200.331 352.086 199.946 352.002C199.571 351.935 199.201 351.825 198.842 351.669L199.092 350.086C199.435 350.268 199.8 350.398 200.175 350.482C200.55 350.565 200.904 350.607 201.238 350.607C201.472 350.607 201.675 350.575 201.842 350.502C202.008 350.419 202.081 350.284 202.071 350.086C202.071 349.909 201.988 349.763 201.821 349.648C201.654 349.539 201.363 349.419 200.946 349.294C200.222 349.117 199.701 348.872 199.383 348.565C199.06 348.263 198.904 347.836 198.904 347.294C198.915 346.836 199.034 346.456 199.258 346.148C199.493 345.846 199.8 345.617 200.175 345.461C200.56 345.31 200.993 345.232 201.467 345.232C201.842 345.232 202.201 345.273 202.55 345.357C202.909 345.44 203.248 345.539 203.571 345.648L203.321 347.19C203.055 347.055 202.748 346.95 202.404 346.877C202.071 346.794 201.748 346.752 201.446 346.752C200.956 346.752 200.717 346.914 200.717 347.232C200.717 347.388 200.784 347.523 200.925 347.648C201.076 347.763 201.352 347.872 201.758 347.982C202.508 348.206 203.05 348.482 203.383 348.815C203.717 349.138 203.883 349.555 203.883 350.065C203.883 350.523 203.764 350.909 203.529 351.211C203.305 351.518 202.993 351.747 202.592 351.898C202.185 352.049 201.738 352.127 201.238 352.127Z" fill="#FFA500"/>
<path d="M207.717 352.148C207.05 352.148 206.534 351.971 206.175 351.607C205.811 351.232 205.633 350.685 205.633 349.961V346.919H204.883V346.086L205.529 345.336L206.738 343.94H207.467V345.377H209.196V346.919H207.467V349.732C207.467 349.982 207.519 350.18 207.633 350.315C207.743 350.456 207.904 350.523 208.113 350.523C208.389 350.523 208.696 350.456 209.029 350.315L209.363 351.773C209.081 351.898 208.8 351.992 208.508 352.044C208.227 352.112 207.967 352.148 207.717 352.148Z" fill="#FFA500"/>
<path d="M212.641 344.627H210.725V343.107H212.641V344.627ZM212.621 352.002H210.746V345.377H212.621V352.002Z" fill="#FFA500"/>
<path d="M218.033 345.232C218.71 345.232 219.241 345.45 219.616 345.877C220.002 346.31 220.2 346.94 220.2 347.773V352.002H218.366V348.023C218.366 347.289 218.044 346.919 217.408 346.919C217.143 346.919 216.898 347.013 216.679 347.19C216.471 347.372 216.309 347.617 216.2 347.919V352.002H214.346V345.377H216.2V346.211C216.393 345.935 216.643 345.706 216.95 345.523C217.252 345.331 217.616 345.232 218.033 345.232Z" fill="#FFA500"/>
<path d="M224.007 350.252H225.09C225.991 350.242 226.642 350.393 227.048 350.711C227.465 351.034 227.673 351.476 227.673 352.044C227.673 352.68 227.392 353.195 226.84 353.586C226.283 353.987 225.455 354.19 224.361 354.19C223.496 354.19 222.83 354.044 222.361 353.752C221.903 353.471 221.673 353.055 221.673 352.502C221.673 352.252 221.741 352.028 221.882 351.836C222.033 351.643 222.205 351.476 222.403 351.336C222.012 351.117 221.819 350.768 221.819 350.294C221.819 350.044 221.887 349.825 222.028 349.627C222.163 349.419 222.33 349.252 222.528 349.127C222.054 348.726 221.819 348.169 221.819 347.461C221.819 346.784 222.054 346.242 222.528 345.836C223.012 345.435 223.673 345.232 224.507 345.232C225.007 345.232 225.413 345.31 225.736 345.461L227.236 344.94L227.611 346.19L226.819 346.357C226.944 346.482 227.038 346.643 227.111 346.836C227.194 347.034 227.236 347.242 227.236 347.461C227.236 348.159 226.996 348.711 226.528 349.127C226.054 349.534 225.392 349.732 224.548 349.732C224.382 349.732 224.22 349.726 224.069 349.711C223.929 349.7 223.788 349.68 223.653 349.648C223.554 349.732 223.507 349.836 223.507 349.961C223.507 350.075 223.548 350.148 223.632 350.19C223.725 350.232 223.85 350.252 224.007 350.252ZM224.528 346.607C223.929 346.607 223.632 346.893 223.632 347.461C223.632 347.742 223.705 347.961 223.861 348.127C224.012 348.284 224.236 348.357 224.528 348.357C224.819 348.357 225.038 348.284 225.194 348.127C225.345 347.961 225.423 347.742 225.423 347.461C225.423 347.185 225.345 346.976 225.194 346.836C225.054 346.685 224.83 346.607 224.528 346.607ZM224.507 352.752C224.949 352.752 225.283 352.695 225.507 352.586C225.725 352.487 225.84 352.325 225.84 352.107C225.84 351.898 225.746 351.763 225.569 351.69C225.387 351.622 225.116 351.586 224.757 351.586H223.694C223.496 351.784 223.403 351.971 223.403 352.148C223.403 352.398 223.507 352.555 223.715 352.627C223.923 352.711 224.184 352.752 224.507 352.752Z" fill="#FFA500"/>
<path d="M236.953 348.898V347.44H239.453V351.169C239.036 351.45 238.567 351.685 238.057 351.877C237.541 352.055 236.994 352.148 236.411 352.148C235.645 352.148 234.963 351.976 234.369 351.627C233.786 351.268 233.333 350.768 233.015 350.127C232.692 349.476 232.536 348.706 232.536 347.815C232.536 346.872 232.708 346.081 233.057 345.44C233.416 344.789 233.901 344.294 234.515 343.961C235.124 343.627 235.807 343.461 236.557 343.461C236.973 343.461 237.395 343.518 237.828 343.627C238.255 343.726 238.682 343.893 239.098 344.127L238.473 345.732C238.182 345.555 237.869 345.419 237.536 345.336C237.203 345.242 236.895 345.19 236.619 345.19C235.994 345.19 235.484 345.409 235.098 345.836C234.708 346.252 234.515 346.914 234.515 347.815C234.515 348.638 234.687 349.284 235.036 349.752C235.38 350.211 235.859 350.44 236.473 350.44C236.776 350.44 237.005 350.419 237.161 350.377C237.328 350.325 237.484 350.252 237.64 350.169V348.898H236.953Z" fill="#FFA500"/>
<path d="M242.897 352.002H241.043V343.148H242.897V352.002Z" fill="#FFA500"/>
<path d="M247.55 352.148C246.925 352.148 246.368 352.002 245.884 351.711C245.41 351.419 245.035 351.018 244.759 350.502C244.478 349.992 244.342 349.377 244.342 348.669C244.342 347.992 244.472 347.393 244.738 346.877C245.014 346.367 245.394 345.961 245.884 345.669C246.368 345.377 246.925 345.232 247.55 345.232C248.175 345.232 248.722 345.377 249.196 345.669C249.681 345.95 250.056 346.346 250.321 346.857C250.597 347.372 250.738 347.976 250.738 348.669C250.738 349.351 250.603 349.956 250.342 350.482C250.077 350.997 249.702 351.409 249.217 351.711C248.743 352.002 248.186 352.148 247.55 352.148ZM247.55 350.523C247.936 350.523 248.248 350.367 248.488 350.044C248.738 349.711 248.863 349.252 248.863 348.669C248.863 348.117 248.738 347.68 248.488 347.357C248.248 347.023 247.936 346.857 247.55 346.857C247.16 346.857 246.842 347.018 246.592 347.336C246.342 347.643 246.217 348.086 246.217 348.669C246.217 349.242 246.342 349.69 246.592 350.023C246.842 350.357 247.16 350.523 247.55 350.523Z" fill="#FFA500"/>
<path d="M255.893 352.148C255.544 352.148 255.211 352.086 254.893 351.961C254.586 351.825 254.315 351.617 254.081 351.336V352.002H252.227V343.148H254.081V346.044C254.315 345.752 254.586 345.544 254.893 345.419C255.195 345.294 255.524 345.232 255.873 345.232C256.383 345.232 256.841 345.372 257.248 345.648C257.649 345.914 257.961 346.305 258.185 346.815C258.419 347.331 258.539 347.95 258.539 348.669C258.539 349.393 258.419 350.018 258.185 350.544C257.961 351.06 257.649 351.456 257.248 351.732C256.841 352.008 256.393 352.148 255.893 352.148ZM255.393 350.523C255.779 350.523 256.086 350.372 256.31 350.065C256.544 349.747 256.664 349.284 256.664 348.669C256.664 348.075 256.544 347.622 256.31 347.315C256.086 347.013 255.779 346.857 255.393 346.857C255.112 346.857 254.873 346.95 254.664 347.127C254.466 347.294 254.32 347.518 254.227 347.794C254.128 348.075 254.081 348.377 254.081 348.711C254.081 349.034 254.128 349.331 254.227 349.607C254.336 349.872 254.487 350.096 254.685 350.273C254.878 350.44 255.112 350.523 255.393 350.523Z" fill="#FFA500"/>
<path d="M262.369 345.232C263.379 345.232 264.109 345.482 264.556 345.982C265.015 346.471 265.244 347.143 265.244 348.002V352.002H263.411V351.19C263.244 351.482 262.999 351.721 262.681 351.898C262.374 352.065 262.015 352.148 261.598 352.148C261.223 352.148 260.879 352.065 260.577 351.898C260.286 351.721 260.046 351.476 259.869 351.169C259.687 350.851 259.598 350.476 259.598 350.044C259.598 349.419 259.786 348.935 260.161 348.586C260.536 348.226 261.119 348.044 261.911 348.044C262.161 348.044 262.416 348.055 262.681 348.065C262.957 348.081 263.202 348.096 263.411 348.107V347.961C263.411 347.586 263.296 347.294 263.077 347.086C262.869 346.877 262.556 346.773 262.14 346.773C261.832 346.773 261.525 346.81 261.223 346.877C260.931 346.95 260.661 347.034 260.411 347.127L260.244 345.586C260.546 345.476 260.879 345.393 261.244 345.336C261.603 345.268 261.978 345.232 262.369 345.232ZM262.223 350.627C263.015 350.627 263.411 350.159 263.411 349.211V349.19C263.254 349.164 263.098 349.148 262.931 349.148C262.775 349.138 262.598 349.127 262.39 349.127C262.025 349.127 261.765 349.185 261.598 349.294C261.442 349.409 261.369 349.596 261.369 349.857C261.369 350.081 261.442 350.268 261.598 350.419C261.749 350.56 261.957 350.627 262.223 350.627Z" fill="#FFA500"/>
<path d="M268.805 352.002H266.951V343.148H268.805V352.002Z" fill="#FFA500"/>
<path d="M276.283 348.398V350.377H280.22V352.002H274.387V343.607H280.137V345.232H276.283V346.857H279.658V348.398H276.283Z" fill="#FFA500"/>
<path d="M285.696 348.627L287.863 352.002H285.821L284.53 349.898L283.259 352.002H281.217L283.384 348.607L281.342 345.377H283.426L284.53 347.357L285.655 345.377H287.717L285.696 348.627Z" fill="#FFA500"/>
<path d="M292.011 352.127C291.386 352.127 290.828 351.997 290.344 351.732C289.87 351.456 289.495 351.06 289.219 350.544C288.938 350.018 288.802 349.398 288.802 348.69C288.802 347.982 288.938 347.372 289.219 346.857C289.511 346.331 289.896 345.93 290.386 345.648C290.87 345.372 291.412 345.232 292.011 345.232C292.37 345.232 292.719 345.284 293.052 345.377C293.396 345.476 293.73 345.638 294.052 345.857L293.427 347.294C293.203 347.143 292.995 347.034 292.802 346.961C292.605 346.893 292.391 346.857 292.157 346.857C291.709 346.857 291.349 347.018 291.073 347.336C290.808 347.643 290.677 348.086 290.677 348.669C290.677 349.284 290.808 349.747 291.073 350.065C291.349 350.372 291.709 350.523 292.157 350.523C292.584 350.523 293.016 350.388 293.448 350.107L294.052 351.544C293.703 351.768 293.365 351.919 293.032 352.002C292.709 352.086 292.37 352.127 292.011 352.127Z" fill="#FFA500"/>
<path d="M300.789 349.252H296.893C296.961 349.726 297.128 350.075 297.393 350.294C297.654 350.502 297.987 350.607 298.393 350.607C298.643 350.607 298.914 350.575 299.206 350.502C299.498 350.419 299.753 350.305 299.977 350.148L300.373 351.565C300.05 351.773 299.711 351.919 299.352 352.002C298.987 352.086 298.612 352.127 298.227 352.127C297.602 352.127 297.045 351.992 296.56 351.711C296.086 351.419 295.711 351.018 295.435 350.502C295.154 349.992 295.018 349.377 295.018 348.669C295.018 348.002 295.143 347.414 295.393 346.898C295.654 346.388 296.024 345.982 296.498 345.69C296.966 345.398 297.524 345.252 298.164 345.252C298.716 345.252 299.206 345.377 299.623 345.627C300.05 345.867 300.383 346.2 300.623 346.627C300.857 347.06 300.977 347.555 300.977 348.107C300.977 348.315 300.956 348.523 300.914 348.732C300.883 348.93 300.841 349.101 300.789 349.252ZM298.102 346.773C297.404 346.773 297.003 347.221 296.893 348.107H299.185C299.17 347.664 299.065 347.331 298.873 347.107C298.69 346.888 298.435 346.773 298.102 346.773Z" fill="#FFA500"/>
<path d="M304.313 352.002H302.459V343.148H304.313V352.002Z" fill="#FFA500"/>
<path d="M307.925 352.002H306.071V343.148H307.925V352.002Z" fill="#FFA500"/>
<path d="M315.141 349.252H311.246C311.313 349.726 311.48 350.075 311.746 350.294C312.006 350.502 312.339 350.607 312.746 350.607C312.996 350.607 313.266 350.575 313.558 350.502C313.85 350.419 314.105 350.305 314.329 350.148L314.725 351.565C314.402 351.773 314.063 351.919 313.704 352.002C313.339 352.086 312.964 352.127 312.579 352.127C311.954 352.127 311.397 351.992 310.912 351.711C310.438 351.419 310.063 351.018 309.787 350.502C309.506 349.992 309.371 349.377 309.371 348.669C309.371 348.002 309.496 347.414 309.746 346.898C310.006 346.388 310.376 345.982 310.85 345.69C311.319 345.398 311.876 345.252 312.516 345.252C313.069 345.252 313.558 345.377 313.975 345.627C314.402 345.867 314.735 346.2 314.975 346.627C315.209 347.06 315.329 347.555 315.329 348.107C315.329 348.315 315.308 348.523 315.266 348.732C315.235 348.93 315.194 349.101 315.141 349.252ZM312.454 346.773C311.756 346.773 311.355 347.221 311.246 348.107H313.537C313.522 347.664 313.417 347.331 313.225 347.107C313.042 346.888 312.787 346.773 312.454 346.773Z" fill="#FFA500"/>
<path d="M320.478 345.232C321.155 345.232 321.686 345.45 322.061 345.877C322.447 346.31 322.644 346.94 322.644 347.773V352.002H320.811V348.023C320.811 347.289 320.488 346.919 319.853 346.919C319.587 346.919 319.342 347.013 319.124 347.19C318.915 347.372 318.754 347.617 318.644 347.919V352.002H316.79V345.377H318.644V346.211C318.837 345.935 319.087 345.706 319.394 345.523C319.697 345.331 320.061 345.232 320.478 345.232Z" fill="#FFA500"/>
<path d="M327.243 352.127C326.618 352.127 326.061 351.997 325.576 351.732C325.102 351.456 324.727 351.06 324.451 350.544C324.17 350.018 324.035 349.398 324.035 348.69C324.035 347.982 324.17 347.372 324.451 346.857C324.743 346.331 325.128 345.93 325.618 345.648C326.102 345.372 326.644 345.232 327.243 345.232C327.602 345.232 327.951 345.284 328.285 345.377C328.628 345.476 328.962 345.638 329.285 345.857L328.66 347.294C328.436 347.143 328.227 347.034 328.035 346.961C327.837 346.893 327.623 346.857 327.389 346.857C326.941 346.857 326.582 347.018 326.306 347.336C326.04 347.643 325.91 348.086 325.91 348.669C325.91 349.284 326.04 349.747 326.306 350.065C326.582 350.372 326.941 350.523 327.389 350.523C327.816 350.523 328.248 350.388 328.681 350.107L329.285 351.544C328.936 351.768 328.597 351.919 328.264 352.002C327.941 352.086 327.602 352.127 327.243 352.127Z" fill="#FFA500"/>
<path d="M336.022 349.252H332.126C332.193 349.726 332.36 350.075 332.626 350.294C332.886 350.502 333.219 350.607 333.626 350.607C333.876 350.607 334.147 350.575 334.438 350.502C334.73 350.419 334.985 350.305 335.209 350.148L335.605 351.565C335.282 351.773 334.943 351.919 334.584 352.002C334.219 352.086 333.844 352.127 333.459 352.127C332.834 352.127 332.277 351.992 331.792 351.711C331.318 351.419 330.943 351.018 330.667 350.502C330.386 349.992 330.251 349.377 330.251 348.669C330.251 348.002 330.376 347.414 330.626 346.898C330.886 346.388 331.256 345.982 331.73 345.69C332.199 345.398 332.756 345.252 333.397 345.252C333.949 345.252 334.438 345.377 334.855 345.627C335.282 345.867 335.615 346.2 335.855 346.627C336.089 347.06 336.209 347.555 336.209 348.107C336.209 348.315 336.188 348.523 336.147 348.732C336.115 348.93 336.074 349.101 336.022 349.252ZM333.334 346.773C332.636 346.773 332.235 347.221 332.126 348.107H334.417C334.402 347.664 334.298 347.331 334.105 347.107C333.923 346.888 333.667 346.773 333.334 346.773Z" fill="#FFA500"/>
<path d="M180.21 327.355V335.147H176.105V316.105H183.418C185.861 316.105 187.085 317.397 187.085 319.98V322.189C187.085 323.761 186.522 324.761 185.397 325.189C186.381 325.553 186.876 326.355 186.876 327.605V335.147H182.751V327.939C182.751 327.553 182.564 327.355 182.189 327.355H180.21ZM180.21 318.897V324.459H182.397C182.548 324.459 182.678 324.407 182.793 324.293C182.902 324.168 182.96 324.032 182.96 323.876V319.48C182.96 319.329 182.902 319.199 182.793 319.084C182.678 318.959 182.548 318.897 182.397 318.897H180.21Z" fill="#FFA500"/>
<path d="M208.044 315.814C210.472 315.814 211.69 317.105 211.69 319.689V335.147H207.565V328.751H204.586V335.147H200.482V319.689C200.482 317.105 201.695 315.814 204.128 315.814H208.044ZM204.586 325.584H207.565V319.189C207.565 319.037 207.508 318.907 207.399 318.793C207.3 318.668 207.169 318.605 207.003 318.605H205.149C204.992 318.605 204.862 318.668 204.753 318.793C204.638 318.907 204.586 319.037 204.586 319.189V325.584Z" fill="#FFA500"/>
<path d="M229.61 331.668H234.131V335.147H225.506V316.105H229.61V331.668Z" fill="#FFA500"/>
<path d="M254.238 316.105C256.665 316.105 257.884 317.397 257.884 319.98V323.793C257.884 326.376 256.665 327.668 254.238 327.668H250.904V335.147H246.779V316.105H254.238ZM253.759 324.251V319.522C253.759 319.355 253.701 319.22 253.592 319.105C253.493 318.98 253.363 318.918 253.196 318.918H250.904V324.834H253.196C253.363 324.834 253.493 324.782 253.592 324.668C253.701 324.543 253.759 324.407 253.759 324.251Z" fill="#FFA500"/>
<path d="M280.906 324.959V328.105H270.864V324.959H280.906Z" fill="#FFA500"/>
<path d="M298.825 316.105V335.147H294.721V316.105H298.825Z" fill="#FFA500"/>
<path d="M316.755 331.73H321.317V335.147H312.65V316.105H321.317V319.459H316.755V323.939H321.025V327.168H316.755V331.73Z" fill="#FFA500"/>
</svg>
