<?xml version="1.0" encoding="UTF-8" standalone="no"?>
<!-- Created with Inkscape (http://www.inkscape.org/) -->

<svg
   xmlns:dc="http://purl.org/dc/elements/1.1/"
   xmlns:cc="http://creativecommons.org/ns#"
   xmlns:rdf="http://www.w3.org/1999/02/22-rdf-syntax-ns#"
   xmlns:svg="http://www.w3.org/2000/svg"
   xmlns="http://www.w3.org/2000/svg"
   xmlns:sodipodi="http://sodipodi.sourceforge.net/DTD/sodipodi-0.dtd"
   xmlns:inkscape="http://www.inkscape.org/namespaces/inkscape"
   width="300"
   height="169.23233"
   id="svg2"
   version="1.1"
   inkscape:version="0.48.1 "
   sodipodi:docname="MphasiS logo.svg">
  <defs
     id="defs4">
    <clipPath
       id="clipPath3115"
       clipPathUnits="userSpaceOnUse">
      <path
         id="path3117"
         d="m 504,704.682 44.59,0 0,38.808 -44.59,0 0,-38.808 z"
         inkscape:connector-curvature="0" />
    </clipPath>
    <clipPath
       id="clipPath3075"
       clipPathUnits="userSpaceOnUse">
      <path
         id="path3077"
         d="m 0,774.06 594,0 0,-774 -594,0 0,774 z"
         inkscape:connector-curvature="0" />
    </clipPath>
    <clipPath
       id="clipPath3059"
       clipPathUnits="userSpaceOnUse">
      <path
         id="path3061"
         d="m 347.913,343.98 -31.122,0 0,-142.083 107.189,0 0,114.84 c 0,0 0,27.243 -27.25,27.243"
         inkscape:connector-curvature="0" />
    </clipPath>
    <clipPath
       id="clipPath3053"
       clipPathUnits="userSpaceOnUse">
      <path
         id="path3055"
         d="m 316.791,201.811 108.159,0 0,143.675 -108.159,0 0,-143.675 z"
         inkscape:connector-curvature="0" />
    </clipPath>
    <clipPath
       id="clipPath3041"
       clipPathUnits="userSpaceOnUse">
      <path
         id="path3043"
         d="m 309.15,343.98 -27.252,0 0,-114.831 c 0,0 0,-27.252 27.252,-27.252 l 7.96,0 0,142.083 -7.96,0 z m -57.114,0 -87.579,0 c -27.093,0 -27.251,-26.924 -27.252,-27.24 0,-0.002 0,-0.003 0,-0.003 l 0,-114.84 114.831,0 c 27.146,0 27.252,27.04 27.252,27.251 0,0 0,0 0,0.001 l 0,114.831"
         inkscape:connector-curvature="0" />
    </clipPath>
    <clipPath
       id="clipPath3035"
       clipPathUnits="userSpaceOnUse">
      <path
         id="path3037"
         d="m 137.117,201.811 179.992,0 0,143.675 -179.992,0 0,-143.675 z"
         inkscape:connector-curvature="0" />
    </clipPath>
    <clipPath
       id="clipPath3023"
       clipPathUnits="userSpaceOnUse">
      <path
         id="path3025"
         d="m 492.53,488.628 -31.9,0 0,-142.083 107.96,0 0,114.84 c 0,0 0,27.243 -27.25,27.243"
         inkscape:connector-curvature="0" />
    </clipPath>
    <clipPath
       id="clipPath3017"
       clipPathUnits="userSpaceOnUse">
      <path
         id="path3019"
         d="m 460.63,345.168 108.15,0 0,143.675 -108.15,0 0,-143.675 z"
         inkscape:connector-curvature="0" />
    </clipPath>
    <clipPath
       id="clipPath3005"
       clipPathUnits="userSpaceOnUse">
      <path
         id="path3007"
         d="m 453.76,488.628 -27.25,0 0,-114.831 c 0,0 0,-27.252 27.25,-27.252 l 7.18,0 0,142.083 -7.18,0 z m -56.9,0 -87.575,0 c -27.093,0 -27.251,-26.924 -27.252,-27.24 0,-0.002 0,-0.003 0,-0.003 l 0,-114.84 114.827,0 c 27.15,0 27.26,27.04 27.26,27.251 0,0 0,0 0,0.001 l 0,114.831"
         inkscape:connector-curvature="0" />
    </clipPath>
    <clipPath
       id="clipPath2999"
       clipPathUnits="userSpaceOnUse">
      <path
         id="path3001"
         d="m 280.952,345.168 179.988,0 0,143.675 -179.988,0 0,-143.675 z"
         inkscape:connector-curvature="0" />
    </clipPath>
    <clipPath
       id="clipPath4279"
       clipPathUnits="userSpaceOnUse">
      <path
         id="path4281"
         d="m 480.24,766.32 47.64,0 0,-27.84 -47.64,0 0,27.84 z"
         inkscape:connector-curvature="0" />
    </clipPath>
    <clipPath
       id="clipPath4259"
       clipPathUnits="userSpaceOnUse">
      <path
         id="path4261"
         d="m 480.24,766.32 47.64,0 0,-27.84 -47.64,0 0,27.84 z"
         inkscape:connector-curvature="0" />
    </clipPath>
    <clipPath
       id="clipPath4007"
       clipPathUnits="userSpaceOnUse">
      <path
         id="path4009"
         d="m 146.201,767.149 -66.641,0 0,-28.549 66.641,0 0,28.549 z"
         inkscape:connector-curvature="0" />
    </clipPath>
    <clipPath
       id="clipPath4279-8"
       clipPathUnits="userSpaceOnUse">
      <path
         inkscape:connector-curvature="0"
         id="path4281-4"
         d="m 480.24,766.32 47.64,0 0,-27.84 -47.64,0 0,27.84 z" />
    </clipPath>
    <clipPath
       id="clipPath4259-0"
       clipPathUnits="userSpaceOnUse">
      <path
         inkscape:connector-curvature="0"
         id="path4261-3"
         d="m 480.24,766.32 47.64,0 0,-27.84 -47.64,0 0,27.84 z" />
    </clipPath>
  </defs>
  <sodipodi:namedview
     id="base"
     pagecolor="#ffffff"
     bordercolor="#666666"
     borderopacity="1.0"
     inkscape:pageopacity="0.0"
     inkscape:pageshadow="2"
     inkscape:zoom="1"
     inkscape:cx="179.54753"
     inkscape:cy="12.607254"
     inkscape:document-units="px"
     inkscape:current-layer="layer1"
     showgrid="false"
     fit-margin-top="0"
     fit-margin-left="0"
     fit-margin-right="0"
     fit-margin-bottom="0"
     inkscape:window-width="1024"
     inkscape:window-height="721"
     inkscape:window-x="-4"
     inkscape:window-y="-4"
     inkscape:window-maximized="1" />
  <metadata
     id="metadata7">
    <rdf:RDF>
      <cc:Work
         rdf:about="">
        <dc:format>image/svg+xml</dc:format>
        <dc:type
           rdf:resource="http://purl.org/dc/dcmitype/StillImage" />
        <dc:title></dc:title>
      </cc:Work>
    </rdf:RDF>
  </metadata>
  <g
     inkscape:label="Layer 1"
     inkscape:groupmode="layer"
     id="layer1"
     transform="translate(-286.01223,262.22964)">
    <g
       id="g51237"
       transform="matrix(5.080368,0,0,5.080368,-1127.6626,303.25771)">
      <g
         style="fill:#0093dd;fill-opacity:1"
         transform="matrix(1.25,0,0,-1.25,278.27813,-81.267756)"
         id="g4249">
        <path
           id="path4251"
           style="fill:#0093dd;fill-opacity:1;fill-rule:evenodd;stroke:none"
           d="m 0,0 0,8.084 2.394,0 2.514,-3.05 -0.017,3.074 2.186,0 L 7.077,0 5.11,0 2.317,3.594 2.315,0 0,0 z m 10.15,-0.054 -1.954,0 0,6.041 1.954,0 0,-6.041 z m -1.954,0 z m 4.825,0 -1.914,0 0,8.137 1.914,0 0,-8.137 z m -1.913,0 z m 2.896,0 0,8.188 1.829,0 0.073,-3.932 1.843,1.886 2.199,0 -2.188,-2.697 2.347,-3.369 -2.385,0 -1.816,2.152 0.025,-2.228 -1.927,0 z m 10.061,3.319 c 0,0.409 -0.108,0.543 -0.322,0.782 C 23.53,4.286 23.238,4.404 22.87,4.404 22.501,4.404 22.209,4.285 21.997,4.049 21.786,3.813 21.68,3.675 21.68,3.265 c 0,-0.407 0.108,-0.73 0.321,-0.965 0.213,-0.235 0.503,-0.352 0.869,-0.352 0.368,0 0.66,0.116 0.873,0.352 0.214,0.235 0.322,0.558 0.322,0.965 z m 2.42,2.879 0,-6.1 -1.908,0 0,0.554 c -1.032,-0.839 -3.074,-0.553 -3.734,0.338 -0.44,0.594 -0.633,1.073 -0.799,1.911 -0.373,1.888 2.02,4.38 4.553,2.766 l 0,0.531 1.888,0 z m 8.433,-6.037 0,3.123 c 0.24,1.896 -1.724,2.51 -1.724,0.127 l 0,-3.25 -1.993,0 0,3.489 c 0,1.997 -1.941,1.465 -1.761,-0.053 l 0,-3.502 -1.891,0 0,6.085 1.922,0 0.018,-0.334 c 0.653,0.929 2.63,0.877 3.053,-0.22 1.285,1.632 3.978,0.931 4.32,-1.009 0.04,-0.223 0.078,-0.581 0.078,-1.078 l 0,-3.378 -2.022,0 z m 12.31,0.017 -1.816,0 0,8.051 1.816,0 0,-8.051 z"
           inkscape:connector-curvature="0" />
      </g>
      <path
         id="path4253"
         style="fill:#231f20;fill-opacity:1;fill-rule:nonzero;stroke:none"
         d="m 288.51938,-89.682756 2.42375,0 0,-1.693748 -2.42375,0 0,1.693748 z"
         inkscape:connector-curvature="0" />
      <g
         style="fill:#0093dd;fill-opacity:1"
         transform="matrix(1.25,0,0,-1.25,-322.52312,845.07348)"
         id="g4255">
        <g
           style="fill:#0093dd;fill-opacity:1"
           clip-path="url(#clipPath4259-0)"
           id="g4257">
          <g
             style="fill:#0093dd;fill-opacity:1"
             transform="translate(522.625,744.291)"
             id="g4263">
            <path
               id="path4265"
               style="fill:#0093dd;fill-opacity:1;fill-rule:evenodd;stroke:none"
               d="M 0,0 C 0,0.409 -0.107,0.543 -0.321,0.782 -0.534,1.021 -0.826,1.139 -1.194,1.139 -1.563,1.139 -1.855,1.02 -2.067,0.784 -2.278,0.548 -2.384,0.41 -2.384,0 c 0,-0.408 0.107,-0.73 0.321,-0.965 0.213,-0.236 0.503,-0.352 0.869,-0.352 0.368,0 0.66,0.116 0.873,0.352 C -0.107,-0.73 0,-0.408 0,0 z m 2.421,2.879 0,-6.1 -1.908,0 0,0.554 c -1.032,-0.839 -3.074,-0.554 -3.734,0.338 -0.44,0.594 -0.633,1.073 -0.799,1.911 -0.373,1.888 2.02,4.38 4.553,2.766 l 0,0.531 1.888,0"
               inkscape:connector-curvature="0" />
          </g>
          <path
             id="path4267"
             style="fill:#0093dd;fill-opacity:1;fill-rule:nonzero;stroke:none"
             d="m 480.653,738.48 47.179,0 0,1.423 -47.179,0 0,-1.423 z"
             inkscape:connector-curvature="0" />
        </g>
      </g>
      <g
         style="fill:#0093dd;fill-opacity:1;stroke:none"
         transform="matrix(1.25,0,0,-1.25,300.72063,-90.43652)"
         id="g4287">
        <path
           id="path4289"
           style="fill:#0093dd;fill-opacity:1;fill-rule:evenodd;stroke:none"
           d="m 0,0 0,16.331 9.333,-0.082 0,-1.067 c 3.669,2.874 8.689,1.61 8.77,-3.365 L 18.116,0.164 C 16.393,3.448 11.291,-2.247 9.798,2.344 12.38,5.18 11.096,8.383 9.092,10.577 6.874,8.162 5.531,4.735 8.261,2.471 7.858,-1.93 1.869,2.822 0,0 z M 3.527,8.7 C 7.956,9.957 5.107,4.162 7.767,2.485 2.707,2.62 4.521,6.442 3.527,8.7 z M 14.59,8.589 C 10.161,9.847 13.01,4.052 10.35,2.375 15.41,2.51 13.597,6.331 14.59,8.589 z M 17.244,4.9 c -1.733,1.186 -2.22,0.663 -3.16,-0.93 -0.705,-1.196 -2.065,-2.247 -3.693,-2.027 1.748,-2.15 4.208,-0.836 5.088,0.872 0.487,0.945 1.274,1.672 1.765,2.085 z M 0.896,4.864 C 2.629,6.049 3.116,5.526 4.056,3.933 4.761,2.738 6.121,1.686 7.749,1.906 6.001,-0.244 3.541,1.07 2.661,2.778 2.174,3.723 1.387,4.451 0.896,4.864"
           inkscape:connector-curvature="0" />
      </g>
      <path
         transform="translate(-142.20437,78.662576)"
         inkscape:connector-curvature="0"
         id="path51221"
         d="m 430.73526,-169.19606 0,-0.84375 1.20313,0 1.20312,0 0,0.84375 0,0.84375 -1.20312,0 -1.20313,0 0,-0.84375 z"
         style="opacity:0.90416703;fill:#0093dd;fill-opacity:1;stroke:none" />
      <path
         transform="translate(-142.20437,78.662576)"
         inkscape:connector-curvature="0"
         id="path51223"
         d="m 430.72352,-169.19176 c 0,-0.74914 6.7e-4,-0.84571 0.006,-0.84571 0.005,0 0.006,0.0964 0.006,0.84375 l 0,0.84375 1.20312,0 1.20311,0 10e-4,-0.84472 9.9e-4,-0.84473 9.7e-4,0.84668 9.7e-4,0.84668 -1.21094,0 -1.21094,0 0,-0.8457 z"
         style="opacity:0.90416703;fill:#0093dd;fill-opacity:1;stroke:none" />
      <path
         transform="translate(-142.20437,78.662576)"
         inkscape:connector-curvature="0"
         id="path51225"
         d="m 430.72353,-169.09313 c 0,-0.41089 0.001,-0.79102 0.003,-0.84473 l 0.003,-0.0976 0.002,0.0625 0.002,0.0625 8.2e-4,-0.0635 8.3e-4,-0.0635 1.20312,0 1.20313,0 0,0.48764 c 0,0.2682 10e-4,0.64876 0.003,0.8457 l 0.003,0.35807 -1.21158,0 -1.21158,0 1e-5,-0.74707 z m 1.81737,0.74023 c -0.33139,-5.5e-4 -0.87368,-5.5e-4 -1.20508,0 -0.33139,5.5e-4 -0.0602,0.001 0.60254,0.001 0.6628,0 0.93394,-4.6e-4 0.60254,-0.001 z"
         style="fill:#0093dd;fill-opacity:1;stroke:none" />
      <path
         transform="translate(-142.20437,78.662576)"
         inkscape:connector-curvature="0"
         id="path51233"
         d="m 439.48399,-157.58735 0,-0.90625 14.64062,0 14.64063,0 0,0.90625 0,0.90625 -14.64063,0 -14.64062,0 0,-0.90625 z"
         style="fill:#000000;fill-opacity:1;stroke:none" />
      <path
         transform="translate(-142.20437,78.662576)"
         inkscape:connector-curvature="0"
         id="path51235"
         d="m 420.46666,-157.59738 0,-0.9375 29.5,0 29.5,0 0,0.9375 0,0.9375 -29.5,0 -29.5,0 0,-0.9375 z m 48.25,0 0,-0.8125 -14.5625,0 -14.5625,0 0,0.8125 0,0.8125 14.5625,0 14.5625,0 0,-0.8125 z"
         style="fill:#000000;fill-opacity:1;stroke:none" />
    </g>
  </g>
</svg>
